<?xml version="1.0" encoding="UTF-8" standalone="no"?>
<svg
   xmlns:dc="http://purl.org/dc/elements/1.1/"
   xmlns:cc="http://creativecommons.org/ns#"
   xmlns:rdf="http://www.w3.org/1999/02/22-rdf-syntax-ns#"
   xmlns:svg="http://www.w3.org/2000/svg"
   xmlns="http://www.w3.org/2000/svg"
   xmlns:sodipodi="http://sodipodi.sourceforge.net/DTD/sodipodi-0.dtd"
   xmlns:inkscape="http://www.inkscape.org/namespaces/inkscape"
   inkscape:version="1.0 (4035a4fb49, 2020-05-01)"
   sodipodi:docname="results.svg"
   viewBox="0 0 816 1056"
   height="1056"
   width="816"
   xml:space="preserve"
   id="svg10"
   version="1.1"><metadata
     id="metadata16"><rdf:RDF><cc:Work
         rdf:about=""><dc:format>image/svg+xml</dc:format><dc:type
           rdf:resource="http://purl.org/dc/dcmitype/StillImage" /><dc:title></dc:title></cc:Work></rdf:RDF></metadata><defs
     id="defs14"><clipPath
       id="clipPath42"
       clipPathUnits="userSpaceOnUse"><path
         id="path40"
         clip-rule="evenodd"
         d="M 51.36,589.66 H 445.75 V 737.04 H 51.36 Z" /></clipPath><clipPath
       id="clipPath54"
       clipPathUnits="userSpaceOnUse"><path
         id="path52"
         clip-rule="evenodd"
         d="M 51.36,589.66 H 445.75 V 737.04 H 51.36 Z" /></clipPath><clipPath
       id="clipPath66"
       clipPathUnits="userSpaceOnUse"><path
         id="path64"
         clip-rule="evenodd"
         d="M 51.36,589.66 H 445.75 V 737.04 H 51.36 Z" /></clipPath><clipPath
       id="clipPath78"
       clipPathUnits="userSpaceOnUse"><path
         id="path76"
         clip-rule="evenodd"
         d="M 51.36,589.66 H 445.75 V 737.04 H 51.36 Z" /></clipPath><clipPath
       id="clipPath90"
       clipPathUnits="userSpaceOnUse"><path
         id="path88"
         clip-rule="evenodd"
         d="M 51.36,589.66 H 445.75 V 737.04 H 51.36 Z" /></clipPath><clipPath
       id="clipPath102"
       clipPathUnits="userSpaceOnUse"><path
         id="path100"
         clip-rule="evenodd"
         d="M 51.36,589.66 H 445.75 V 737.04 H 51.36 Z" /></clipPath><clipPath
       id="clipPath114"
       clipPathUnits="userSpaceOnUse"><path
         id="path112"
         clip-rule="evenodd"
         d="M 51.36,589.66 H 445.75 V 737.04 H 51.36 Z" /></clipPath><clipPath
       id="clipPath126"
       clipPathUnits="userSpaceOnUse"><path
         id="path124"
         clip-rule="evenodd"
         d="M 51.36,589.66 H 445.75 V 737.04 H 51.36 Z" /></clipPath><clipPath
       id="clipPath138"
       clipPathUnits="userSpaceOnUse"><path
         id="path136"
         clip-rule="evenodd"
         d="M 51.36,589.66 H 445.75 V 737.04 H 51.36 Z" /></clipPath><clipPath
       id="clipPath150"
       clipPathUnits="userSpaceOnUse"><path
         id="path148"
         clip-rule="evenodd"
         d="M 51.36,589.66 H 445.75 V 737.04 H 51.36 Z" /></clipPath><clipPath
       id="clipPath162"
       clipPathUnits="userSpaceOnUse"><path
         id="path160"
         clip-rule="evenodd"
         d="M 51.36,589.66 H 445.75 V 737.04 H 51.36 Z" /></clipPath><clipPath
       id="clipPath174"
       clipPathUnits="userSpaceOnUse"><path
         id="path172"
         clip-rule="evenodd"
         d="M 51.36,589.66 H 445.75 V 737.04 H 51.36 Z" /></clipPath><clipPath
       id="clipPath186"
       clipPathUnits="userSpaceOnUse"><path
         id="path184"
         clip-rule="evenodd"
         d="M 51.36,589.66 H 445.75 V 737.04 H 51.36 Z" /></clipPath><clipPath
       id="clipPath198"
       clipPathUnits="userSpaceOnUse"><path
         id="path196"
         clip-rule="evenodd"
         d="M 51.36,589.66 H 445.75 V 737.04 H 51.36 Z" /></clipPath><clipPath
       id="clipPath210"
       clipPathUnits="userSpaceOnUse"><path
         id="path208"
         clip-rule="evenodd"
         d="M 51.36,589.66 H 445.75 V 737.04 H 51.36 Z" /></clipPath><clipPath
       id="clipPath222"
       clipPathUnits="userSpaceOnUse"><path
         id="path220"
         clip-rule="evenodd"
         d="m 193.22,590.14 h 252.05 v 14.52 H 193.22 Z" /></clipPath></defs><sodipodi:namedview
     inkscape:current-layer="g18"
     inkscape:window-maximized="1"
     inkscape:window-y="-9"
     inkscape:window-x="-9"
     inkscape:cy="528"
     inkscape:cx="408"
     inkscape:zoom="0.75852273"
     showgrid="false"
     id="namedview12"
     inkscape:window-height="1001"
     inkscape:window-width="1920"
     inkscape:pageshadow="2"
     inkscape:pageopacity="0"
     guidetolerance="10"
     gridtolerance="10"
     objecttolerance="10"
     borderopacity="1"
     bordercolor="#666666"
     pagecolor="#ffffff" /><g
     transform="matrix(1.3333333,0,0,-1.3333333,0,1056)"
     inkscape:label="results"
     inkscape:groupmode="layer"
     id="g18"><path
       id="path20"
       style="fill:#1ffd2f;fill-opacity:1;fill-rule:evenodd;stroke:none"
       d="m 193.22,649.18 h 84.144 v 22.44 H 193.22 Z" /><path
       id="path22"
       style="fill:#02d011;fill-opacity:1;fill-rule:evenodd;stroke:none"
       d="m 277.25,649.18 h 168.14 v 22.44 H 277.25 Z" /><path
       id="path24"
       style="fill:#02b50f;fill-opacity:1;fill-rule:evenodd;stroke:none"
       d="m 193.22,626.86 h 84.144 V 649.3 H 193.22 Z" /><path
       id="path26"
       style="fill:#029a0d;fill-opacity:1;fill-rule:evenodd;stroke:none"
       d="m 277.25,626.86 h 84.144 V 649.3 H 277.25 Z" /><path
       id="path28"
       style="fill:#027f0b;fill-opacity:1;fill-rule:evenodd;stroke:none"
       d="m 361.27,626.86 h 84.12 v 22.44 h -84.12 z" /><path
       id="path30"
       style="fill:#02d011;fill-opacity:1;fill-rule:evenodd;stroke:none"
       d="m 193.22,604.54 h 84.144 v 22.44 H 193.22 Z" /><path
       id="path32"
       style="fill:#016308;fill-opacity:1;fill-rule:evenodd;stroke:none"
       d="m 277.25,604.54 h 84.144 v 22.44 H 277.25 Z" /><path
       id="path34"
       style="fill:#029a0d;fill-opacity:1;fill-rule:evenodd;stroke:none"
       d="m 361.27,604.54 h 84.12 v 22.44 h -84.12 z" /><g
       id="g36"><g
         clip-path="url(#clipPath42)"
         id="g38"><text
           id="text46"
           style="font-variant:normal;font-weight:normal;font-size:11.04px;font-family:Calibri;-inkscape-font-specification:Calibri;writing-mode:lr-tb;fill:#000000;fill-opacity:1;fill-rule:nonzero;stroke:none"
           transform="matrix(1,0,0,-1,206.45,679.06)"><tspan
             id="tspan44"
             sodipodi:role="line"
             y="0"
             x="0 7.0766401 12.94992 15.44496 21.83712 25.535521 29.256001 34.753922 40.549919 44.248322 46.787521 52.649761">No Attention</tspan></text></g></g><g
       id="g48"><g
         clip-path="url(#clipPath54)"
         id="g50"><text
           id="text58"
           style="font-variant:normal;font-weight:normal;font-size:11.04px;font-family:Calibri;-inkscape-font-specification:Calibri;writing-mode:lr-tb;fill:#000000;fill-opacity:1;fill-rule:nonzero;stroke:none"
           transform="matrix(1,0,0,-1,288.77,679.06)"><tspan
             id="tspan56"
             sodipodi:role="line"
             y="0"
             x="0 5.0673599 10.56528 13.10448 16.47168 18.966721 25.31472 29.013121 32.74464 38.242561 44.038559 47.736961 50.276161 56.138401">Self Attention</tspan></text></g></g><g
       id="g60"><g
         clip-path="url(#clipPath66)"
         id="g62"><text
           id="text70"
           style="font-variant:normal;font-weight:normal;font-size:11.04px;font-family:Calibri;-inkscape-font-specification:Calibri;writing-mode:lr-tb;fill:#000000;fill-opacity:1;fill-rule:nonzero;stroke:none"
           transform="matrix(1,0,0,-1,374.71,679.06)"><tspan
             id="tspan68"
             sodipodi:role="line"
             y="0"
             x="0 5.0673599 10.56528 13.10448 16.47168 18.966721 26.496 29.02416 35.990398 38.529598 44.369759 50.132641 55.420799">Self &amp; Global</tspan></text></g></g><g
       id="g72"><g
         clip-path="url(#clipPath78)"
         id="g74"><text
           id="text82"
           style="font-variant:normal;font-weight:normal;font-size:11.04px;font-family:Calibri;-inkscape-font-specification:Calibri;writing-mode:lr-tb;fill:#000000;fill-opacity:1;fill-rule:nonzero;stroke:none"
           transform="matrix(1,0,0,-1,102.98,653.14)"><tspan
             id="tspan80"
             sodipodi:role="line"
             y="0"
             x="0 6.3921599 12.71808 16.096319 21.483841 26.871361 33.837601 40.914242 46.412159">AA-EEGNet</tspan></text></g></g><g
       id="g84"><g
         clip-path="url(#clipPath90)"
         id="g86"><text
           id="text94"
           style="font-variant:normal;font-weight:normal;font-size:11.04px;font-family:Calibri;-inkscape-font-specification:Calibri;writing-mode:lr-tb;fill:#f2f2f2;fill-opacity:1;fill-rule:nonzero;stroke:none"
           transform="matrix(1,0,0,-1,225.89,656.74)"><tspan
             id="tspan92"
             sodipodi:role="line"
             y="0"
             x="0 5.6304002 8.4124804 14.00976">0.83</tspan></text></g></g><g
       id="g96"><g
         clip-path="url(#clipPath102)"
         id="g98"><text
           id="text106"
           style="font-variant:normal;font-weight:normal;font-size:11.04px;font-family:Calibri;-inkscape-font-specification:Calibri;writing-mode:lr-tb;fill:#f2f2f2;fill-opacity:1;fill-rule:nonzero;stroke:none"
           transform="matrix(1,0,0,-1,309.89,656.74)"><tspan
             id="tspan104"
             sodipodi:role="line"
             y="0"
             x="0 5.6304002 8.4124804 14.00976">0.90</tspan></text></g></g><g
       id="g108"><g
         clip-path="url(#clipPath114)"
         id="g110"><text
           id="text118"
           style="font-variant:normal;font-weight:normal;font-size:11.04px;font-family:Calibri;-inkscape-font-specification:Calibri;writing-mode:lr-tb;fill:#f2f2f2;fill-opacity:1;fill-rule:nonzero;stroke:none"
           transform="matrix(1,0,0,-1,393.91,656.74)"><tspan
             id="tspan116"
             sodipodi:role="line"
             y="0"
             x="0 5.6304002 8.4124804 14.00976">0.90</tspan></text></g></g><g
       id="g120"><g
         clip-path="url(#clipPath126)"
         id="g122"><text
           id="text130"
           style="font-variant:normal;font-weight:normal;font-size:11.04px;font-family:Calibri;-inkscape-font-specification:Calibri;writing-mode:lr-tb;fill:#000000;fill-opacity:1;fill-rule:nonzero;stroke:none"
           transform="matrix(1,0,0,-1,102.98,630.82)"><tspan
             id="tspan128"
             sodipodi:role="line"
             y="0"
             x="0 6.3921599 12.71808 16.096319 21.98064 27.268801 31.58544 36.25536 41.543522 47.273281 52.771198 59.903042 65.400963">AA-CascadeNet</tspan></text></g></g><g
       id="g132"><g
         clip-path="url(#clipPath138)"
         id="g134"><text
           id="text142"
           style="font-variant:normal;font-weight:normal;font-size:11.04px;font-family:Calibri;-inkscape-font-specification:Calibri;writing-mode:lr-tb;fill:#f2f2f2;fill-opacity:1;fill-rule:nonzero;stroke:none"
           transform="matrix(1,0,0,-1,225.89,634.42)"><tspan
             id="tspan140"
             sodipodi:role="line"
             y="0"
             x="0 5.6304002 8.4124804 14.00976">0.91</tspan></text></g></g><g
       id="g144"><g
         clip-path="url(#clipPath150)"
         id="g146"><text
           id="text154"
           style="font-variant:normal;font-weight:normal;font-size:11.04px;font-family:Calibri;-inkscape-font-specification:Calibri;writing-mode:lr-tb;fill:#f2f2f2;fill-opacity:1;fill-rule:nonzero;stroke:none"
           transform="matrix(1,0,0,-1,309.89,634.42)"><tspan
             id="tspan152"
             sodipodi:role="line"
             y="0"
             x="0 5.6304002 8.4124804 14.00976">0.92</tspan></text></g></g><g
       id="g156"><g
         clip-path="url(#clipPath162)"
         id="g158"><text
           id="text166"
           style="font-variant:normal;font-weight:normal;font-size:11.04px;font-family:Calibri;-inkscape-font-specification:Calibri;writing-mode:lr-tb;fill:#f2f2f2;fill-opacity:1;fill-rule:nonzero;stroke:none"
           transform="matrix(1,0,0,-1,393.91,634.42)"><tspan
             id="tspan164"
             sodipodi:role="line"
             y="0"
             x="0 5.6304002 8.4124804 14.00976">0.93</tspan></text></g></g><g
       id="g168"><g
         clip-path="url(#clipPath174)"
         id="g170"><text
           id="text178"
           style="font-variant:normal;font-weight:normal;font-size:11.04px;font-family:Calibri;-inkscape-font-specification:Calibri;writing-mode:lr-tb;fill:#000000;fill-opacity:1;fill-rule:nonzero;stroke:none"
           transform="matrix(1,0,0,-1,102.98,608.5)"><tspan
             id="tspan176"
             sodipodi:role="line"
             y="0"
             x="0 6.3921599 12.71808 16.096319 25.535521 31.33152 33.87072 37.569118 40.108318 45.0984 47.6376 53.135521 61.062241 68.138878 73.636803">AA-MultiviewNet</tspan></text></g></g><g
       id="g180"><g
         clip-path="url(#clipPath186)"
         id="g182"><text
           id="text190"
           style="font-variant:normal;font-weight:normal;font-size:11.04px;font-family:Calibri;-inkscape-font-specification:Calibri;writing-mode:lr-tb;fill:#f2f2f2;fill-opacity:1;fill-rule:nonzero;stroke:none"
           transform="matrix(1,0,0,-1,225.89,612.1)"><tspan
             id="tspan188"
             sodipodi:role="line"
             y="0"
             x="0 5.6304002 8.4124804 14.00976">0.90</tspan></text></g></g><g
       id="g192"><g
         clip-path="url(#clipPath198)"
         id="g194"><text
           id="text202"
           style="font-variant:normal;font-weight:normal;font-size:11.04px;font-family:Calibri;-inkscape-font-specification:Calibri;writing-mode:lr-tb;fill:#f2f2f2;fill-opacity:1;fill-rule:nonzero;stroke:none"
           transform="matrix(1,0,0,-1,309.89,612.1)"><tspan
             id="tspan200"
             sodipodi:role="line"
             y="0"
             x="0 5.6304002 8.4124804 14.00976">0.94</tspan></text></g></g><g
       id="g204"><g
         clip-path="url(#clipPath210)"
         id="g206"><text
           id="text214"
           style="font-variant:normal;font-weight:normal;font-size:11.04px;font-family:Calibri;-inkscape-font-specification:Calibri;writing-mode:lr-tb;fill:#f2f2f2;fill-opacity:1;fill-rule:nonzero;stroke:none"
           transform="matrix(1,0,0,-1,393.91,612.1)"><tspan
             id="tspan212"
             sodipodi:role="line"
             y="0"
             x="0 5.6304002 8.4124804 14.00976">0.92</tspan></text></g></g><g
       id="g216"><g
         clip-path="url(#clipPath222)"
         id="g218"><text
           id="text226"
           style="font-variant:normal;font-weight:normal;font-size:11.04px;font-family:Calibri;-inkscape-font-specification:Calibri;writing-mode:lr-tb;fill:#000000;fill-opacity:1;fill-rule:nonzero;stroke:none"
           transform="matrix(1,0,0,-1,241.85,593.98)"><tspan
             id="tspan224"
             sodipodi:role="line"
             y="0"
             x="0 5.8843198 9.7372799 15.58848 19.905121 24.22176 27.6 32.623199 38.386082 44.14896 46.787521 52.285439 56.97744 60.675838 63.203999 68.580482 74.111519 78.428162 82.126556 84.665756 90.461761 95.59536 98.090401 104.48256 109.15248 113.8224 119.6184 123.43824 128.72639 133.39632 138.43056 140.9256 144.31488 152.20848">Cross-Subject Testing Accuracy [%]</tspan></text></g></g></g></svg>
